<svg xmlns="http://www.w3.org/2000/svg" xmlns:xlink="http://www.w3.org/1999/xlink" width="500" zoomAndPan="magnify" viewBox="0 0 375 374.999991" height="500" preserveAspectRatio="xMidYMid meet" version="1.0"><path fill="#00568d" d="M 333.570312 347.015625 L 308.796875 119.488281 C 307.457031 107.214844 297.089844 97.90625 284.761719 97.90625 L 90.238281 97.90625 C 77.910156 97.90625 67.542969 107.214844 66.203125 119.488281 L 41.429688 347.015625 C 39.882812 361.328125 51.078125 373.828125 65.464844 373.828125 L 309.535156 373.828125 C 323.921875 373.828125 335.117188 361.328125 333.570312 347.015625 Z M 196.394531 196.996094 L 241.558594 196.996094 L 241.558594 210.214844 L 196.394531 210.214844 Z M 156.96875 187.839844 C 165.671875 187.839844 172.734375 194.902344 172.734375 203.605469 C 172.734375 212.328125 165.671875 219.390625 156.96875 219.390625 C 148.246094 219.390625 141.183594 212.328125 141.183594 203.605469 C 141.183594 194.902344 148.246094 187.839844 156.96875 187.839844 Z M 187.480469 287.082031 C 159.6875 287.082031 133.253906 276.585938 113.03125 257.515625 L 125.984375 243.769531 C 142.691406 259.535156 164.539062 268.199219 187.480469 268.199219 C 210.460938 268.199219 232.304688 259.535156 249.015625 243.769531 L 261.96875 257.515625 C 241.746094 276.585938 215.292969 287.082031 187.480469 287.082031 Z M 187.480469 287.082031 " fill-opacity="1" fill-rule="nonzero"/><path fill="#193d54" d="M 187.5 0.964844 C 154.984375 0.964844 128.53125 27.417969 128.53125 59.933594 L 128.53125 83.574219 L 149.152344 83.574219 L 149.152344 59.933594 C 149.152344 38.804688 166.351562 21.605469 187.5 21.605469 C 208.648438 21.605469 225.847656 38.804688 225.847656 59.933594 L 225.847656 83.574219 L 246.46875 83.574219 L 246.46875 59.933594 C 246.46875 27.417969 220.015625 0.964844 187.5 0.964844 Z M 187.5 0.964844 " fill-opacity="1" fill-rule="nonzero"/></svg>